<svg width="552" height="259" viewBox="0 0 552 259" fill="none" xmlns="http://www.w3.org/2000/svg">
<rect width="552" height="259" fill="#0C8E34"/>
<path d="M350.78 134.977C346.992 136.838 343.004 140.892 342.14 144.015C340.611 149.067 340.611 153.52 342.073 157.84C342.871 160.099 343.469 162.359 343.469 162.824C343.469 163.289 339.614 167.543 334.829 172.328C325.059 182.165 325.724 180.636 326.787 191.802C327.518 199.179 327.917 199.511 337.687 201.572C349.584 204.097 348.254 204.562 358.423 194.593L367.196 185.953L371.117 187.349C374.241 188.479 376.168 188.678 380.422 188.479C388.198 188.08 391.92 185.687 395.708 178.642C397.303 175.585 397.37 166.147 395.775 162.558C393.382 157.308 387.733 152.656 382.482 151.659C379.824 151.193 379.824 151.193 377.763 145.345C376.235 141.158 372.446 136.904 368.459 135.043C363.806 132.85 355.166 132.85 350.78 134.977ZM365.667 140.161C369.987 142.42 372.712 146.873 372.712 151.792C372.712 155.779 374.374 157.374 378.495 157.374C384.808 157.374 389.195 161.096 390.724 167.809C392.053 173.525 389.66 179.373 385.074 181.567C381.552 183.228 375.238 182.962 371.25 180.968C369.456 180.038 367.329 179.307 366.531 179.307C365.534 179.307 362.078 182.364 356.03 188.346L346.925 197.451L340.744 196.188C337.355 195.457 334.164 194.527 333.699 194.061C333.167 193.463 332.835 191.403 332.835 188.08V183.029L341.807 173.99C347.59 168.141 350.78 164.419 350.78 163.555C350.78 162.758 350.049 160.631 349.118 158.837C347.856 156.377 347.457 154.45 347.457 151.459C347.457 144.813 349.517 141.623 355.1 139.563C357.36 138.699 363.474 139.097 365.667 140.161Z" fill="white"/>
<path d="M319.343 155.248C317.615 157.109 317.748 165.416 319.476 166.945C322.334 169.537 324.86 166.745 324.86 161.03C324.86 155.314 322.002 152.323 319.343 155.248Z" fill="white"/>
<path d="M298.009 160.432C296.347 162.093 296.746 163.223 300.335 167.011C304.389 171.331 305.918 171.996 307.712 170.135C309.573 168.341 308.909 166.812 304.589 162.758C300.8 159.169 299.671 158.77 298.009 160.432Z" fill="white"/>
<path d="M292.692 181.699C291.429 182.896 291.296 184.69 292.426 185.82C292.891 186.285 295.284 186.618 298.607 186.618C304.124 186.618 305.586 186.019 305.586 183.893C305.586 181.5 303.725 180.636 298.607 180.636C295.018 180.636 293.423 180.902 292.692 181.699Z" fill="white"/>
<path d="M307.845 199.312C301.997 204.961 300.667 205.958 299.405 205.559C292.759 203.433 290.964 203.167 286.843 203.499C281.593 203.898 278.137 205.493 274.88 209.082C269.896 214.598 269.032 223.637 272.82 231.014C275.08 235.534 279.001 238.724 284.185 240.186C288.106 241.316 288.97 241.98 288.97 243.974C288.97 245.968 291.762 251.219 294.088 253.478C299.006 258.397 307.048 260.258 314.292 258.131C319.077 256.802 323.663 252.814 325.258 248.627C326.854 244.44 326.854 237.793 325.258 233.008L323.929 229.22L330.708 222.241C336.092 216.725 337.487 214.864 337.487 213.402C337.487 210.079 336.291 209.281 329.379 208.018C325.857 207.287 322.467 206.357 321.869 205.892C321.138 205.293 320.872 203.765 320.872 200.309C320.872 196.122 320.673 195.324 319.343 194.061C316.618 191.469 315.223 192.134 307.845 199.312ZM315.023 205.958C315.489 210.478 316.818 211.674 322.799 212.804C325.458 213.335 327.983 214.066 328.382 214.465C328.847 214.93 327.252 216.991 322.999 221.377C319.609 224.767 316.884 228.023 316.884 228.622C316.884 229.22 317.615 231.28 318.546 233.274C321.204 239.056 320.739 246.035 317.349 249.624C313.96 253.279 306.915 254.143 301.731 251.684C297.743 249.69 295.55 246.234 295.018 240.784C294.752 238.458 294.354 236.265 294.088 236.065C293.822 235.8 291.629 235.334 289.236 235.002C283.853 234.404 280.862 232.609 278.602 228.755C276.475 225.099 276.143 218.785 277.871 215.462C281.194 209.015 289.17 207.354 297.012 211.474C298.873 212.405 300.8 213.202 301.266 213.202C301.797 213.202 304.855 210.677 308.045 207.62C311.235 204.562 314.093 202.17 314.292 202.303C314.558 202.436 314.89 204.097 315.023 205.958Z" fill="white"/>
<path d="M363.275 205.958C361.879 206.756 361.68 209.215 362.876 210.411C363.341 210.876 365.734 211.209 369.057 211.209C374.573 211.209 376.035 210.61 376.035 208.484C376.035 206.091 374.174 205.227 369.19 205.227C366.531 205.227 363.873 205.559 363.275 205.958Z" fill="white"/>
<path d="M359.42 222.441C358.423 224.302 358.423 224.235 362.544 228.555C366.531 232.742 368.791 233.54 370.054 231.214C371.051 229.353 371.051 229.419 366.93 225.099C362.942 220.912 360.683 220.114 359.42 222.441Z" fill="white"/>
<path d="M344.665 224.567C343.668 225.099 343.469 226.229 343.469 231.147C343.469 236.398 343.602 237.195 344.798 237.793C346.792 238.857 348.653 237.528 349.185 234.736C349.849 231.014 349.118 225.764 347.723 224.7C346.327 223.703 346.128 223.637 344.665 224.567Z" fill="white"/>
<path d="M152.579 132.196C150.995 132.526 147.695 134.505 146.31 136.023C144.33 138.135 143.274 141.632 144.66 141.632C145.056 141.632 145.32 142.226 145.32 142.952C145.32 143.678 145.518 144.272 145.848 144.272C146.112 144.272 146.706 145.262 147.233 146.383C147.761 147.571 149.015 149.815 150.071 151.333C151.061 152.85 151.919 154.236 151.919 154.5C151.919 154.764 152.843 156.282 153.964 157.932C155.086 159.581 155.812 161.099 155.482 161.363C155.152 161.561 154.558 162.353 154.162 163.079C152.447 166.246 151.589 167.698 151.259 168.028C150.599 168.688 148.553 172.317 148.157 173.439C147.959 174.099 147.563 174.627 147.233 174.627C146.904 174.627 146.64 175.023 146.64 175.419C146.64 175.881 146.046 177.003 145.32 177.927C143.538 180.236 143.67 182.084 145.848 183.338C146.838 183.998 148.685 185.449 149.939 186.637C151.193 187.825 153.898 190.135 155.878 191.784C157.858 193.368 160.233 195.48 161.157 196.404C162.081 197.328 163.863 198.845 165.117 199.769C166.371 200.759 168.746 202.739 170.396 204.257C173.497 207.094 175.147 207.49 175.543 205.378C175.807 204.191 174.289 202.409 171.188 200.297C170.396 199.703 168.614 198.251 167.228 196.998C165.909 195.744 162.873 193.104 160.497 191.125C158.122 189.145 156.076 187.363 155.878 187.165C155.548 186.835 148.487 181.094 148.091 180.83C147.827 180.632 149.279 177.729 149.873 177.267C150.071 177.069 150.665 176.277 151.127 175.419C151.523 174.627 152.315 173.307 152.777 172.449C153.173 171.658 153.766 170.866 153.964 170.668C154.162 170.47 155.02 168.754 155.944 166.906C157.726 163.079 158.188 162.683 158.782 164.861C159.376 167.236 163.401 169.414 167.294 169.546C170.528 169.678 170.726 169.612 170.726 168.028C170.726 166.51 170.528 166.378 167.954 166.576C165.513 166.774 164.919 166.51 162.675 164.267C161.289 162.881 159.574 160.505 158.782 159.12C157 155.622 155.614 153.246 155.218 152.85C154.888 152.521 154.558 151.993 151.787 146.977C151.061 145.658 149.873 143.81 149.213 142.82C147.563 140.576 147.629 139.521 149.477 137.937C151.853 135.891 153.766 135.033 155.878 135.033C157.924 135.033 163.797 137.541 163.797 138.465C163.797 139.323 165.843 139.059 166.832 138.003C168.152 136.683 167.69 136.089 163.599 134.109C160.036 132.394 155.482 131.602 152.579 132.196Z" fill="white"/>
<path d="M171.848 139.455C171.98 140.84 172.442 141.368 173.629 141.5C174.487 141.632 176.929 143.546 179.041 145.724C181.35 148.099 183.198 149.485 183.66 149.221C184.056 148.957 186.497 148.627 189.137 148.495C193.888 148.231 200.025 147.769 206.69 147.175L210.32 146.779L214.477 150.805C218.766 154.962 219.162 155.16 225.167 154.896C229.193 154.764 230.513 154.566 233.548 153.576C235.792 152.916 236.386 153.18 236.386 154.698C236.386 156.612 239.817 158.79 242.853 158.79C244.37 158.79 245.624 158.988 245.624 159.317C245.624 159.581 246.548 160.175 247.604 160.637C250.178 161.759 250.112 162.749 247.34 165.521C245.294 167.566 243.645 168.292 237.376 170.074C236.32 170.404 233.152 171.262 230.447 172.054C227.741 172.779 224.837 173.703 223.98 174.033C223.122 174.363 221.934 174.627 221.274 174.627C220.614 174.627 219.294 175.419 218.304 176.343C216.919 177.795 216.589 178.718 216.589 181.292C216.589 183.338 216.985 184.988 217.711 185.779C218.304 186.505 224.508 190.003 231.568 193.5C243.249 199.373 244.304 200.033 244.304 201.617C244.304 203.531 241.731 205.51 237.508 206.896C235 207.754 234.142 207.688 227.477 206.368C222.792 205.51 214.279 206.038 209.858 207.49C203.193 209.734 195.406 215.277 193.954 218.906C193.624 219.632 193.294 219.566 192.371 218.51C191.711 217.784 189.203 215.541 186.893 213.561C184.518 211.581 182.208 209.536 181.68 209.074C181.218 208.612 180.36 208.348 179.832 208.546C179.305 208.744 178.711 208.942 178.579 208.942C178.447 208.942 178.315 209.47 178.315 210.064C178.315 210.724 179.634 212.175 181.152 213.363C182.67 214.485 185.112 216.531 186.563 217.916C188.015 219.236 190.259 221.084 191.513 222.074C193.888 223.79 194.812 224.779 194.812 225.505C194.812 225.769 193.624 227.221 192.173 228.805C190.721 230.388 189.533 231.84 189.533 232.038C189.533 232.236 189.269 232.764 188.939 233.292C188.477 234.018 187.817 233.688 185.772 231.642C184.386 230.191 181.614 227.683 179.634 226.099C177.655 224.449 175.675 222.866 175.279 222.47C174.883 222.14 172.97 220.49 171.056 218.84C169.142 217.191 167.228 215.541 166.832 215.211C166.437 214.815 164.457 213.231 162.477 211.581C160.497 209.998 158.386 208.15 157.858 207.622C157.33 207.094 155.218 205.246 153.239 203.663C151.259 202.013 148.751 199.901 147.695 198.911C145.584 196.998 144 197.13 144 199.175C144 200.495 144.528 201.155 147.431 203.399C148.421 204.191 150.797 206.104 152.711 207.754C154.624 209.404 158.716 212.901 161.817 215.541C164.919 218.18 168.944 221.612 170.726 223.13C172.574 224.713 175.081 226.825 176.335 227.881C177.589 228.937 179.437 230.52 180.492 231.378C182.406 233.028 182.67 234.48 181.614 236.658C181.284 237.383 180.69 238.571 180.294 239.297C179.964 240.023 179.634 241.343 179.634 242.201C179.634 243.125 179.305 244.048 178.975 244.246C178.645 244.444 178.315 245.698 178.315 246.952C178.315 248.206 178.051 249.196 177.655 249.196C177.259 249.196 176.995 251.043 176.995 253.485C176.995 257.18 177.127 257.774 178.183 257.774C179.766 257.774 180.954 255.135 180.954 251.835C180.954 250.449 181.284 249.064 181.614 248.866C182.01 248.668 182.274 247.48 182.274 246.226C182.274 244.972 182.604 243.784 182.934 243.586C183.264 243.388 183.594 242.333 183.594 241.211C183.594 240.155 183.924 239.297 184.254 239.297C184.65 239.297 184.914 238.373 184.914 237.317C184.914 235.338 186.299 234.546 187.223 235.998C188.147 237.515 189.995 236.394 193.954 232.17C197.452 228.409 198.046 227.353 198.112 225.241C198.112 223.921 197.848 222.8 197.452 222.8C196.198 222.8 196.792 219.962 198.31 218.708C204.381 213.297 207.614 211.449 213.619 209.866C217.579 208.81 225.035 208.678 227.543 209.668C230.909 210.922 238.563 210.526 241.929 208.876C247.472 206.302 249.98 200.825 246.944 198.053C245.228 196.47 245.294 195.216 247.208 193.698C248.132 192.972 249.32 191.455 249.848 190.333C251.035 188.023 251.233 183.866 250.244 183.866C249.914 183.866 249.584 183.47 249.584 182.942C249.584 180.83 245.558 180.368 242.721 182.216C241.797 182.81 240.807 183.14 240.543 183.008C240.213 182.81 239.421 183.074 238.695 183.602C237.639 184.394 237.573 184.79 238.167 185.713C239.091 187.231 242.787 186.901 244.634 185.185C246.614 183.338 246.944 183.536 246.944 186.373C246.944 188.353 246.416 189.541 244.568 191.652C243.315 193.17 241.929 194.424 241.533 194.424C241.137 194.424 237.639 192.906 233.812 190.993C229.985 189.145 226.421 187.429 225.893 187.165C222.924 185.845 225.365 184.262 229.127 185.054C232.228 185.779 233.746 185.383 233.746 183.866C233.746 182.546 232.426 181.82 229.457 181.49C226.949 181.226 222.462 182.546 222.066 183.668C221.538 184.988 220.614 184.658 219.822 182.942C219.162 181.622 219.294 180.962 220.482 179.312C221.406 177.993 222.528 177.267 223.518 177.267C224.376 177.267 225.761 177.003 226.619 176.673C227.477 176.343 229.457 175.749 231.106 175.287C232.756 174.825 234.802 174.231 235.726 173.967C236.65 173.703 238.695 173.109 240.345 172.647C247.34 170.734 249.65 169.15 252.157 164.531C253.279 162.617 253.543 160.901 253.543 156.612C253.543 151.597 253.411 150.937 251.695 148.957C249.188 145.988 245.558 145.79 240.279 148.429C238.167 149.419 234.934 150.409 233.02 150.607C231.041 150.739 228.005 151.201 226.289 151.531C221.274 152.587 220.812 152.389 216.655 148.297C214.081 145.724 212.035 144.272 210.848 144.14C208.736 143.942 196.198 144.536 188.939 145.262C184.056 145.724 184.056 145.724 182.34 143.744C180.162 141.302 174.553 137.673 172.838 137.673C171.914 137.673 171.65 138.069 171.848 139.455ZM248.33 150.409C249.452 151.267 250.376 156.81 249.65 158.064C249.386 158.46 248.396 157.998 247.208 156.81C245.558 155.292 244.766 155.028 242.787 155.292C240.873 155.556 240.279 155.358 239.685 154.104C238.761 152.455 239.421 151.795 242.523 151.069C243.513 150.871 244.304 150.475 244.304 150.145C244.304 149.287 247.076 149.485 248.33 150.409Z" fill="white"/>
<path d="M155.416 141.434C154.426 141.83 154.228 144.932 155.218 144.932C155.614 144.932 155.878 145.394 155.878 145.922C155.878 146.45 156.076 146.911 156.406 146.911C156.67 146.911 157.396 148.033 157.99 149.353C159.244 152.125 161.289 155.622 161.883 156.15C162.081 156.348 162.609 157.14 163.071 157.932C164.457 160.571 168.416 161.825 174.553 161.495C175.807 161.429 176.137 159.12 174.883 158.394C174.487 158.13 172.706 157.998 170.99 158.064C168.482 158.13 167.558 157.866 166.503 156.744C165.711 155.886 165.117 154.83 165.117 154.368C165.117 153.906 164.919 153.51 164.655 153.51C164.325 153.51 163.797 152.851 163.467 151.993C162.477 149.947 159.574 144.668 159.178 144.272C158.98 144.074 158.518 143.348 158.122 142.688C157.33 141.236 156.604 140.906 155.416 141.434Z" fill="white"/>
<path d="M206.03 153.84C206.03 156.018 208.802 159.12 210.254 158.592C211.771 157.998 211.574 156.084 209.726 153.972C207.746 151.663 206.03 151.597 206.03 153.84Z" fill="white"/>
<path d="M258.03 169.876C253.543 172.252 252.817 173.175 254.401 174.561C255.127 175.089 256.513 174.693 260.34 172.779C265.355 170.338 266.741 168.688 264.365 167.764C262.98 167.236 263.112 167.17 258.03 169.876Z" fill="white"/>
<path d="M253.939 180.962C253.081 183.272 254.731 183.866 262.122 183.866C267.599 183.866 269.381 183.668 270.04 182.876C270.7 182.084 270.7 181.688 270.04 180.896C268.787 179.378 254.533 179.444 253.939 180.962Z" fill="white"/>
<path d="M254.335 189.277C253.015 190.597 253.477 191.587 256.051 192.774C257.37 193.368 259.614 194.424 260.934 195.15C262.32 195.81 263.837 196.206 264.431 196.008C266.015 195.348 265.553 193.368 263.639 192.444C262.584 191.982 260.406 190.927 258.69 190.069C254.995 188.221 255.325 188.287 254.335 189.277Z" fill="white"/>
<path d="M20.0889 1.59998C19.1555 2.53331 18.4889 3.99998 18.4889 4.93331C18.4889 5.73331 17.0222 7.99998 15.1555 9.86665C11.9555 13.0667 9.95554 14 3.15554 14.9333C-0.577796 15.4666 -1.24446 20 2.48887 20C5.68887 20 12.6222 16.8 16.2222 13.6C18.6222 11.4666 18.6222 11.7333 17.8222 20C17.2889 24.8 16.3555 31.8666 15.6889 35.7333C14.3555 43.7333 10.0889 83.8667 9.95554 90L9.82221 94L20.4889 95.0667C35.4222 96.5333 43.8222 95.6 50.2222 91.4667C62.2222 84 66.3555 67.3333 59.0222 56.5333C55.5555 51.4666 54.6222 50.5333 50.4889 48.1333C48.8889 47.0667 49.1555 45.7333 52.3555 39.2C58.8889 25.8666 57.0222 8.39998 48.6222 4.13332C45.6889 2.66665 30.7555 -2.28882e-05 25.1555 -2.28882e-05C23.1555 -2.28882e-05 21.0222 0.666649 20.0889 1.59998ZM28.4889 3.86665C29.1555 5.06665 24.3555 9.33331 22.2222 9.33331C20.2222 9.33331 21.1555 5.46664 23.5555 4.13332C26.4889 2.39998 27.4222 2.39998 28.4889 3.86665ZM46.8889 7.99998C53.8222 13.4666 53.8222 27.0667 46.7555 40.6666C44.2222 45.8666 43.8222 46.1333 38.6222 45.6C35.0222 45.2 31.9555 45.8666 29.8222 47.2C26.7555 49.2 26.4889 49.2 26.4889 47.0667C26.4889 45.7333 27.6889 38.4 29.1555 30.6666C30.6222 22.9333 31.8222 15.0667 31.8222 13.0667C31.8222 6.13332 40.6222 3.06664 46.8889 7.99998ZM29.1555 11.7333C29.1555 14.5333 25.4222 17.7333 23.1555 16.8C20.8889 16 20.8889 15.8666 23.1555 13.3333C25.5555 10.6666 29.1555 9.73331 29.1555 11.7333ZM27.8222 21.0667C27.8222 22.8 23.8222 28 22.3555 28C20.4889 28 20.8889 21.6 22.8889 20.9333C25.4222 19.8666 27.8222 19.8666 27.8222 21.0667ZM25.5555 34.4C24.3555 37.8666 22.3555 40 20.3555 40C17.5555 40 18.0889 36.4 21.4222 33.4666C24.6222 30.4 26.7555 30.9333 25.5555 34.4ZM23.8222 44.2666C23.8222 46.1333 19.8222 50.6666 18.2222 50.6666C16.2222 50.6666 17.1555 45.4666 19.5555 44.1333C22.6222 42.2666 23.8222 42.4 23.8222 44.2666ZM41.1555 49.6C41.0222 52.1333 30.7555 59.0667 28.4889 58.1333C23.9555 56.4 27.1555 51.4666 34.0889 49.3333C39.5555 47.7333 41.1555 47.7333 41.1555 49.6ZM52.2222 54.1333C57.6889 59.6 59.2889 65.0667 57.9555 73.8666C56.3555 84.6667 45.6889 92 31.9555 92C22.8889 92 21.4222 90.5333 22.6222 83.0667C23.1555 79.6 23.6889 72.9333 23.6889 68.4L23.8222 60.2667L28.8889 60.9333C33.6889 61.6 34.6222 61.0667 39.9555 55.7333C43.1555 52.4 46.2222 49.6 46.6222 49.6C47.0222 49.4666 49.5555 51.4666 52.2222 54.1333ZM20.3555 58.2667C18.6222 59.4666 17.5555 59.6 16.6222 58.5333C15.5555 57.6 16.0889 56.4 18.4889 54.4C21.5555 51.8666 21.8222 51.8666 22.3555 54.1333C22.6222 55.4666 21.6889 57.3333 20.3555 58.2667ZM20.0889 67.3333C18.0889 71.6 13.9555 72 15.2889 67.6C16.6222 63.0667 18.6222 60.9333 20.2222 62.5333C21.1555 63.4666 21.1555 65.0667 20.0889 67.3333ZM19.8222 75.8666C19.8222 77.3333 18.7555 79.4667 17.5555 80.8C15.2889 83.0667 15.1555 82.9333 14.7555 79.3333C14.4889 77.3333 15.0222 75.0667 16.0889 74.5333C18.7555 72.8 19.8222 73.0667 19.8222 75.8666ZM18.8889 87.8667C18.0889 90.9333 15.0222 92.5333 13.6889 90.5333C12.7555 88.9333 17.0222 83.7333 18.4889 84.6667C19.1555 85.0667 19.2889 86.5333 18.8889 87.8667Z" fill="white"/>
<path d="M202.756 1.99998C193.956 8.26664 184.756 34.1333 183.156 57.3333C181.689 77.2 171.689 92 159.822 92C156.089 92 155.822 91.7333 155.822 86.9333C155.822 82.4 160.756 61.6 163.156 55.6C163.956 53.7333 163.422 53.3333 159.556 53.3333C156.222 53.3333 153.422 52 149.689 48.8L144.489 44.4L146.222 36C147.156 31.4666 147.689 27.4666 147.289 27.0666C145.956 25.6 135.689 28.4 134.756 30.4C134.089 31.7333 132.756 36.2666 131.822 40.6666C123.956 77.4666 117.822 90.4 108.756 89.0666C103.289 88.2666 100.756 77.0666 103.689 67.3333C104.356 65.0666 106.756 57.3333 109.022 50C114.356 32.5333 114.356 30.2666 108.622 27.4666C101.956 24.4 96.8889 24.8 91.0222 29.0666C76.2222 39.8666 66.4889 60.1333 66.4889 80.4C66.4889 87.2 72.2222 93.3333 78.6222 93.3333C82.0889 93.3333 84.0889 92 88.6222 87.2C91.8222 83.8666 94.7555 79.8666 95.1555 78.5333C96.3555 74.9333 98.4889 75.4666 98.4889 79.3333C98.4889 84.8 102.089 91.8666 105.689 93.4666C108.222 94.6666 109.822 94.5333 113.156 92.8C117.022 90.9333 117.822 90.9333 120.222 92.6666C121.822 93.7333 125.022 94.6666 127.422 94.6666C131.022 94.6666 131.956 94.1333 132.622 90.9333C133.022 88.9333 134.889 81.6 136.489 74.6666C138.222 67.7333 140.089 59.2 140.489 55.6C141.556 48.2666 142.889 46.9333 145.422 50.4C146.356 51.8666 149.689 54.2666 152.756 55.7333L158.356 58.6666L156.356 64.9333C150.356 84.2666 149.822 88.6666 152.489 92.8C154.089 95.2 155.689 96 159.422 96C165.289 96 174.622 90.8 177.156 86.1333C179.156 82.2666 182.089 81.3333 180.356 84.9333C179.822 86.2666 179.156 89.6 178.756 92.2666C178.222 97.3333 178.222 97.3333 182.889 97.3333C185.556 97.3333 187.956 96.8 188.356 96.1333C188.889 95.4666 189.556 90.2666 190.089 84.8C190.889 73.8666 192.356 70.9333 193.556 77.3333C194.622 82.5333 203.689 91.2 210.089 93.0666C215.956 94.8 224.089 93.2 228.356 89.6C232.089 86.1333 235.956 77.6 236.222 72.2666C236.622 64.8 234.089 65.2 232.356 72.8C230.622 80.9333 227.556 85.7333 223.022 87.7333C213.422 92.1333 202.622 87.0666 196.622 75.0666C193.956 69.6 193.822 69.7333 197.956 68.8C211.289 65.3333 222.756 47.4666 215.156 41.8666C211.689 39.3333 211.556 39.3333 204.622 44.6666C196.756 50.6666 195.689 50.5333 201.422 44.2666C207.822 37.2 211.156 31.0666 213.822 22.1333C218.089 6.93331 211.956 -4.40002 202.756 1.99998ZM210.889 7.06664C211.956 9.86664 209.156 24.1333 206.356 30.5333C204.889 33.8666 202.222 38.5333 200.356 40.9333C196.756 45.6 193.556 46.9333 195.156 42.9333C195.689 41.7333 197.556 33.7333 199.422 25.3333C201.289 16.9333 203.289 9.06664 203.956 7.73331C205.422 4.93331 209.956 4.53331 210.889 7.06664ZM198.489 16.4C198.489 18.9333 194.889 23.4666 193.822 22.4C193.289 21.8666 193.956 20 195.422 18.1333C198.222 14.2666 198.489 14 198.489 16.4ZM195.822 27.8666C195.822 30.5333 192.756 33.8666 191.422 32.5333C190.489 31.4666 193.289 25.3333 194.756 25.3333C195.289 25.3333 195.822 26.4 195.822 27.8666ZM102.489 30C102.489 30.2666 99.6889 32.1333 96.3555 34.1333C92.3555 36.5333 89.8222 37.2 89.0222 36.4C87.2889 34.6666 95.2889 29.3333 99.5555 29.3333C101.156 29.3333 102.489 29.6 102.489 30ZM142.489 32.6666C142.489 34.8 137.956 37.7333 136.756 36.4C135.422 35.2 138.356 30.6666 140.489 30.6666C141.556 30.6666 142.489 31.6 142.489 32.6666ZM109.156 34.2666C109.156 34.8 107.022 41.8666 104.489 50C99.6889 65.4666 90.8889 80.2666 83.0222 86.5333C75.4222 92.5333 74.8889 86.9333 81.2889 67.3333C86.2222 52 91.8222 42.2666 98.7555 37.3333C103.822 33.6 109.156 32 109.156 34.2666ZM194.489 36.6666C194.489 38.2666 191.289 44 190.222 44C189.022 44 188.756 41.0666 189.956 38.1333C190.622 36.2666 194.489 34.9333 194.489 36.6666ZM89.8222 39.8666C90.4889 41.2 84.4889 46.6666 82.3555 46.6666C80.0889 46.6666 81.1555 42.8 84.0889 40.8C87.5555 38.4 88.7555 38.1333 89.8222 39.8666ZM140.889 40.8C140.489 43.3333 136.356 46.2666 135.156 45.0666C134.622 44.6666 134.889 42.9333 135.822 41.4666C137.556 38.1333 141.556 37.7333 140.889 40.8ZM213.422 48.6666C212.756 52.9333 208.756 57.7333 201.689 62.2666C193.956 67.4666 191.822 67.7333 191.822 63.4666C191.822 59.7333 194.489 56.4 202.489 50C209.022 44.8 214.089 44.2666 213.422 48.6666ZM139.022 49.6C137.289 55.3333 133.156 58.4 133.156 53.8666C133.156 50.5333 135.689 46.6666 137.956 46.6666C139.422 46.6666 139.822 47.4666 139.022 49.6ZM193.156 47.2C193.156 49.8666 189.822 56 188.356 56C186.089 56 186.089 54.6666 187.822 50.1333C188.489 48.2666 189.956 46.6666 191.156 46.6666C192.222 46.6666 193.156 46.9333 193.156 47.2ZM84.4889 49.3333C85.1555 50.4 80.2222 53.3333 77.6889 53.3333C75.9555 53.3333 77.5555 49.4666 79.5555 48.9333C83.2889 47.8666 83.6889 48 84.4889 49.3333ZM81.1555 56.4C81.1555 58.9333 74.8889 61.7333 73.6889 59.7333C72.6222 58.1333 76.6222 54.6666 79.4222 54.6666C80.3555 54.6666 81.1555 55.4666 81.1555 56.4ZM135.822 60.1333C135.822 64 133.422 68 131.156 68C128.756 68 128.756 67.7333 131.022 62C133.289 56.8 135.822 55.8666 135.822 60.1333ZM190.489 59.2C190.489 61.3333 187.689 66.6666 186.489 66.6666C184.622 66.6666 184.756 62.2666 186.756 60.2666C188.356 58.6666 190.489 58.1333 190.489 59.2ZM78.2222 64.2666C77.9555 65.0666 76.3555 66.6666 74.8889 67.6C71.4222 70 69.5555 67.7333 72.6222 64.8C75.0222 62.2666 78.8889 62 78.2222 64.2666ZM188.356 70.4C189.422 72.1333 187.156 79.0666 185.422 79.7333C184.489 80 183.822 78.9333 183.822 76.9333C183.822 70.9333 186.356 67.2 188.356 70.4ZM74.6222 75.8666C73.6889 77.4666 72.4889 78.6666 71.8222 78.6666C69.9555 78.6666 70.2222 74.1333 72.0889 72.2666C74.4889 69.8666 76.3555 72.5333 74.6222 75.8666ZM133.156 73.0666C133.156 75.7333 128.489 81.3333 126.489 81.3333C124.222 81.3333 125.022 77.8666 127.956 74.1333C131.156 70.1333 133.156 69.6 133.156 73.0666ZM72.6222 84.9333C71.1555 86.4 70.0889 84.1333 71.1555 81.7333C72.2222 79.4666 72.2222 79.4666 72.7555 81.7333C73.1555 83.0666 73.0222 84.5333 72.6222 84.9333ZM130.489 83.2C130.489 86.2666 127.422 90.6666 125.289 90.6666C121.156 90.6666 120.489 87.8666 123.956 85.2C126.889 82.9333 130.489 81.8666 130.489 83.2ZM186.489 87.2C186.489 90 185.689 92 184.489 92.5333C182.356 93.3333 181.956 90.9333 183.289 85.6C184.489 81.2 186.489 82.1333 186.489 87.2Z" fill="white"/>
<path d="M289.956 3.86664C286.889 9.59998 280.222 14.6666 275.689 14.6666C272.089 14.6666 269.022 17.7333 270.889 19.4666C272.222 20.8 279.689 18.5333 284.489 15.2L289.289 12L288.356 21.0666C287.956 26 287.289 30.8 287.022 31.8666C285.422 36.9333 279.956 92.6666 280.889 93.6C281.556 94.2666 289.556 94.9333 298.622 95.0666C314.756 95.3333 315.289 95.2 320.756 91.4666C331.022 84.5333 336.222 68.4 331.289 58.8C330.222 56.8 327.022 53.0666 324.356 50.8L319.422 46.4L322.222 40.9333C328.622 28 328.489 13.6 321.689 6.53331C319.022 3.73331 316.222 2.66664 308.356 1.46664C293.556 -0.666695 292.222 -0.533356 289.956 3.86664ZM299.156 3.86664C299.822 5.06664 295.022 9.33331 292.889 9.33331C290.889 9.33331 291.822 5.46664 294.222 4.13331C297.156 2.39997 298.089 2.39997 299.156 3.86664ZM316.622 7.73331C323.956 13.6 324.622 23.0667 319.022 36.5333L315.156 45.7333L308.489 45.8666C304.889 46 300.622 46.6666 299.289 47.3333C297.022 48.4 296.756 48 297.556 43.2C298.622 36 302.489 13.3333 303.156 9.73331C304.222 5.19997 312.089 3.99998 316.622 7.73331ZM299.822 11.4666C299.822 13.8666 296.622 17.3333 294.489 17.3333C291.156 17.3333 291.022 14 294.222 12.1333C296.756 10.6666 299.822 10.2666 299.822 11.4666ZM298.489 21.0666C298.489 23.2 294.222 28 292.356 28C290.089 28 289.956 26.1333 291.822 22.5333C293.156 20.1333 298.489 18.9333 298.489 21.0666ZM294.489 38.1333C293.556 39.0666 291.956 40 291.022 40C288.222 40 288.756 36.4 292.222 32.9333L295.156 30L295.556 33.0666C295.822 34.8 295.289 37.0666 294.489 38.1333ZM292.489 48C291.156 49.4666 289.556 50.6666 288.889 50.6666C286.889 50.6666 287.822 45.4666 290.222 44.1333C293.689 42.1333 295.422 44.8 292.489 48ZM311.822 49.2C311.822 50.9333 302.222 58.6666 300.089 58.6666C297.556 58.6666 296.622 54.9333 298.489 52.6666C301.022 49.6 311.822 46.8 311.822 49.2ZM320.756 51.8666C329.022 58.8 331.289 69.8666 326.489 79.2C322.356 87.6 314.622 91.7333 303.022 91.8666C293.422 92 291.822 90.4 293.156 81.3333C293.822 77.3333 294.356 70.9333 294.356 67.0666L294.489 60.2666L299.689 60.9333C304.489 61.6 305.289 61.2 310.756 55.6C313.822 52.2666 316.756 49.6 317.156 49.4666C317.556 49.4666 319.156 50.5333 320.756 51.8666ZM293.156 54.6666C293.156 57.7333 288.489 60.8 287.156 58.5333C286.222 57.0666 290.089 52 292.089 52C292.622 52 293.156 53.2 293.156 54.6666ZM290.489 67.3333C288.622 70.8 285.156 71.8666 285.156 68.9333C285.156 68 286.089 65.8666 287.289 64.1333C290.356 59.8666 293.022 62.5333 290.489 67.3333ZM290.489 75.7333C290.489 77.2 289.289 79.3333 287.822 80.6666C285.156 83.0666 285.156 82.9333 285.156 78.9333C285.156 75.3333 286.356 73.7333 289.556 73.4667C290.089 73.3333 290.489 74.4 290.489 75.7333ZM289.156 88C287.156 91.7333 285.289 92.5333 284.356 90C283.822 88.6666 284.489 87.2 285.956 86C289.156 83.7333 290.889 84.8 289.156 88Z" fill="white"/>
<path d="M515.156 4.66664C510.489 9.59998 502.489 24.2666 502.489 27.8666C502.489 29.0666 501.689 33.3333 500.622 37.3333C499.556 41.3333 498.089 50.6666 497.289 57.8666C496.489 65.2 494.622 73.7333 493.156 76.8C487.689 89.4666 478.756 93.3333 475.022 84.6666C471.822 76.8 472.089 74.8 483.156 40.4C485.422 33.3333 484.489 29.7333 479.689 27.3333C465.422 19.8666 447.289 36.6666 439.156 64.6666C436.756 73.3333 428.756 84.1333 422.356 87.3333C417.422 90 409.956 89.8666 407.689 87.2C405.556 84.6666 405.556 65.0666 407.689 59.6C408.489 57.6 410.089 56 411.289 56C415.422 56 424.889 49.4666 427.822 44.5333C433.289 35.8666 431.022 25.2 423.956 25.3333C419.689 25.4666 413.022 30.2666 406.622 37.8666C399.422 46.2666 396.222 53.7333 394.889 65.0666C393.956 73.6 387.689 84.6666 381.289 88.9333C375.956 92.5333 369.422 92.9333 368.222 89.7333C367.556 88 369.956 76.4 375.556 54.9333C375.822 54 374.622 53.3333 372.356 53.3333C368.089 53.3333 360.622 48.6666 358.356 44.4C357.156 42.1333 357.289 40.2666 359.022 35.2C360.222 31.7333 360.622 28.2666 360.089 27.7333C359.422 27.0666 356.356 26.9333 353.422 27.4666C347.022 28.4 347.689 27.2 341.156 55.3333C339.422 62.6666 336.222 73.7333 334.222 79.8666C329.822 92.5333 330.089 93.7333 338.756 93.8666L344.489 94L347.422 82.6666C349.022 76.4 351.289 66.5333 352.622 60.6666C353.822 54.8 355.022 49.6 355.289 49.0666C355.556 48.6666 357.689 50 359.956 52.1333C362.222 54.2666 365.556 56.4 367.289 56.8C369.022 57.2 370.489 57.8666 370.489 58.1333C370.489 58.4 369.022 64.2666 367.156 71.2C361.822 91.2 362.756 96 372.222 96C379.289 96 386.489 91.3333 391.422 83.6L395.022 78L395.956 82.5333C396.489 85.0666 398.356 88.2666 400.089 89.6C403.289 92.1333 410.756 94.6666 414.889 94.6666C419.289 94.6666 427.556 89.4666 433.022 83.0666L438.489 76.6666V81.7333C438.489 88.2666 443.289 93.3333 449.289 93.3333C452.489 93.3333 454.889 92 459.022 87.6C462.089 84.5333 465.556 80.5333 466.756 78.6666L469.022 75.3333V78.9333C469.156 84.6666 473.156 91.7333 477.289 93.3333C481.822 95.2 485.556 93.6 490.756 87.4666L494.356 83.3333L493.556 90.2666L492.756 97.3333H497.556C503.022 97.3333 503.289 96.8 504.622 84.1333C505.556 73.7333 507.022 71.0666 508.222 77.3333C508.756 79.4666 511.422 83.6 514.356 86.4C527.822 99.4666 544.622 94.9333 549.822 76.8C552.356 68 551.556 62.9333 548.356 67.2C547.289 68.6666 546.489 71.3333 546.489 73.0666C546.489 77.7333 541.422 86.1333 537.556 87.8666C530.356 91.2 522.356 88.9333 515.556 81.7333C512.489 78.5333 508.356 70.6666 509.422 70.1333C509.689 70 512.356 68.8 515.556 67.3333C518.622 66 523.556 62.2666 526.489 59.2C530.889 54.4 531.822 52.4 531.822 48.1333C531.822 40.6666 528.222 38.6666 521.956 42.6666C519.422 44.1333 516.756 46.2666 515.822 47.3333C514.889 48.4 513.556 49.3333 512.889 49.3333C512.222 49.3333 514.356 46 517.689 42C524.889 33.0666 529.156 22.2666 529.156 12.9333C529.156 -2.28882e-05 522.889 -3.60003 515.156 4.66664ZM524.356 13.3333C524.222 23.0666 522.089 30 516.889 37.8666C512.489 44.5333 507.822 48 509.556 43.4666C510.089 42.1333 512.089 33.8666 514.089 24.9333C517.822 7.73331 519.022 4.93331 522.356 5.59998C523.956 5.99998 524.489 7.73331 524.356 13.3333ZM511.822 19.8666C510.489 22.5333 507.822 23.7333 507.822 21.6C507.822 21.0666 508.889 19.2 510.089 17.3333C512.622 13.7333 514.089 15.7333 511.822 19.8666ZM510.489 27.0666C510.489 28 509.689 29.8666 508.756 31.3333C506.222 34.6666 504.489 31.7333 506.756 28C508.756 24.9333 510.489 24.5333 510.489 27.0666ZM474.089 30.1333C473.156 31.0666 469.422 33.3333 464.089 36.1333C459.422 38.6666 458.756 36.1333 463.156 32.5333C466.489 29.8666 476.622 27.7333 474.089 30.1333ZM355.822 31.7333C355.822 32.4 354.622 34 353.289 35.2C350.356 37.8666 347.956 35.7333 350.489 32.6666C352.222 30.5333 355.822 30 355.822 31.7333ZM426.489 35.3333C426.489 38.5333 425.289 41.3333 422.489 44.4C418.622 48.8 411.156 53.0666 409.689 51.7333C408.489 50.5333 414.222 37.0666 417.289 33.8666C419.022 32.1333 421.689 30.6666 423.422 30.6666C426.089 30.6666 426.489 31.3333 426.489 35.3333ZM476.356 47.4666C470.889 64.6666 466.756 72.5333 457.822 82.2666C453.022 87.4666 450.356 89.6 448.889 88.9333C446.889 88.2666 446.889 87.3333 448.489 80.4C451.156 69.2 456.622 53.8666 459.689 48.8C465.022 40.1333 473.022 33.3333 477.822 33.3333H480.889L476.356 47.4666ZM507.689 40C506.889 42.1333 505.422 44 504.356 44C502.089 44 502.089 43.8666 503.822 39.4666C504.489 37.6 505.956 36 507.022 36C508.622 36 508.756 36.8 507.689 40ZM354.489 39.8666C354.489 41.4666 350.622 45.3333 349.022 45.3333C347.289 45.3333 347.556 42.1333 349.422 40.2666C351.289 38.4 354.489 38.1333 354.489 39.8666ZM461.156 41.3333C461.156 42.8 453.156 47.2 452.222 46.2666C451.289 45.2 454.889 40.1333 457.156 39.6C459.556 39.0666 461.156 39.7333 461.156 41.3333ZM409.156 42C409.156 43.8666 404.889 50.6666 403.822 50.6666C401.956 50.6666 402.089 49.6 404.756 45.2C406.756 41.7333 409.156 40.1333 409.156 42ZM527.822 48.4C527.822 50 526.889 52.6666 525.822 54.4C523.422 57.7333 513.822 64.5333 509.556 65.8666C506.889 66.6666 506.489 66.4 506.489 63.6C506.489 59.7333 508.889 56.6666 516.889 50.1333C523.689 44.5333 527.822 43.8666 527.822 48.4ZM351.822 49.2C351.822 52.8 347.822 56.5333 346.089 54.8C345.156 53.8666 345.422 52.4 347.022 50.1333C349.689 46 351.822 45.6 351.822 49.2ZM506.489 49.7333C506.489 52.8 504.222 56 502.222 56C500.756 56 500.889 52.2666 502.489 49.2C504.356 45.7333 506.489 46 506.489 49.7333ZM455.822 49.3333C455.822 51.2 449.422 54 448.089 52.8C447.022 51.6 451.556 48 454.089 48C455.022 48 455.822 48.6666 455.822 49.3333ZM405.156 54.4C405.156 57.2 400.756 61.8666 399.422 60.5333C398.356 59.3333 402.222 52 403.822 52C404.622 52 405.156 53.0666 405.156 54.4ZM451.822 56.6666C451.822 59.2 446.622 62 444.889 60.2666C444.089 59.4666 444.489 58.2666 445.822 56.8C448.489 54.1333 451.822 54 451.822 56.6666ZM348.622 60.2666C348.222 62 347.822 64 347.822 64.9333C347.822 65.8666 346.489 67.2 345.022 68.1333C342.222 69.6 342.089 69.4666 343.022 65.3333C343.956 60.5333 345.956 57.3333 348.089 57.3333C348.889 57.3333 349.156 58.6666 348.622 60.2666ZM503.956 62.9333C503.422 64.5333 502.222 66.1333 501.422 66.4C499.422 67.0666 499.422 62.2666 501.422 60.2666C503.689 58 505.156 59.6 503.956 62.9333ZM402.889 63.6C404.089 64.8 401.289 68 398.889 68C397.422 68 397.422 67.4666 398.489 65.3333C399.956 62.5333 401.422 62 402.889 63.6ZM449.156 64.4C449.156 65.3333 447.822 66.8 446.356 67.7333C442.622 70.1333 440.222 67.8666 443.156 64.8C445.689 62.2666 449.156 62 449.156 64.4ZM401.689 74.4C400.756 77.8666 397.156 78.4 397.156 74.9333C397.156 72 399.956 68.9333 401.422 70.4C401.956 70.9333 402.089 72.6666 401.689 74.4ZM502.489 72.5333C502.489 76.6666 501.156 80 499.689 80C498.356 80 498.089 74.6666 499.289 71.4666C500.489 68.2666 502.489 68.9333 502.489 72.5333ZM346.489 72.5333C346.489 75.0666 341.289 81.3333 339.156 81.3333C337.556 81.3333 337.556 80.5333 338.622 77.6C340.622 72.1333 346.489 68.2666 346.489 72.5333ZM445.156 76.6666C442.889 79.4666 441.156 79.2 441.156 76C441.156 72.8 445.556 69.8666 446.222 72.8C446.489 73.8666 445.956 75.6 445.156 76.6666ZM403.156 83.6C403.556 85.3333 403.422 86.6666 402.756 86.6666C400.489 86.6666 398.222 82.8 399.022 80.4C400.089 77.8666 401.822 79.2 403.156 83.6ZM444.089 84.6666C442.489 87.6 440.489 84.9333 441.689 81.7333C442.356 80.1333 443.022 80 443.956 80.9333C444.889 81.8666 445.022 83.2 444.089 84.6666ZM342.489 83.6C342.356 87.3333 340.489 90.6666 338.356 90.6666C334.489 90.6666 333.822 87.8666 337.289 85.2C340.756 82.5333 342.489 82 342.489 83.6ZM501.156 86.5333C501.156 88.6666 500.222 91.0666 499.156 92C497.422 93.4666 497.156 93.0666 497.156 90.2666C497.156 86 498.356 82.6666 499.956 82.6666C500.622 82.6666 501.156 84.4 501.156 86.5333Z" fill="white"/>
</svg>
