<svg width="253" height="127" viewBox="0 0 253 127" fill="none" xmlns="http://www.w3.org/2000/svg">
<rect width="253" height="127" fill="#0C8E34"/>
<path d="M206.78 2.97665C202.992 4.83758 199.004 8.89177 198.14 12.0155C196.611 17.0666 196.611 21.5195 198.073 25.8396C198.871 28.0993 199.469 30.359 199.469 30.8242C199.469 31.2895 195.614 35.543 190.829 40.3283C181.059 50.1647 181.724 48.636 182.787 59.8017C183.518 67.1789 183.917 67.5113 193.687 69.5716C205.584 72.0971 204.254 72.5624 214.423 62.5931L223.196 53.953L227.117 55.3487C230.241 56.4786 232.168 56.6779 236.422 56.4786C244.198 56.0798 247.92 53.6872 251.708 46.6422C253.303 43.5849 253.37 34.1473 251.775 30.5584C249.382 25.3079 243.733 20.6555 238.482 19.6586C235.824 19.1934 235.824 19.1934 233.763 13.3447C232.235 9.15761 228.446 4.90405 224.459 3.04311C219.806 0.849863 211.166 0.849863 206.78 2.97665ZM221.667 8.16068C225.987 10.4204 228.712 14.8733 228.712 19.7915C228.712 23.7793 230.374 25.3743 234.494 25.3743C240.808 25.3743 245.195 29.0962 246.724 35.8089C248.053 41.5246 245.66 47.3733 241.074 49.5665C237.552 51.2281 231.238 50.9622 227.25 48.9684C225.456 48.0379 223.329 47.3068 222.531 47.3068C221.534 47.3068 218.078 50.3641 212.03 56.3456L202.925 65.4509L196.744 64.1882C193.355 63.4571 190.164 62.5266 189.699 62.0614C189.167 61.4632 188.835 59.4029 188.835 56.0798V51.0287L197.807 41.9898C203.59 36.1412 206.78 32.4193 206.78 31.5553C206.78 30.7578 206.049 28.631 205.118 26.8365C203.856 24.3774 203.457 22.45 203.457 19.4592C203.457 12.813 205.517 9.62285 211.1 7.56253C213.36 6.69852 219.474 7.09729 221.667 8.16068Z" fill="white"/>
<path d="M163.845 67.3119C157.997 72.9612 156.667 73.9581 155.405 73.5593C148.759 71.4325 146.964 71.1667 142.843 71.499C137.593 71.8978 134.137 73.4929 130.88 77.0818C125.896 82.5981 125.032 91.637 128.82 99.0143C131.08 103.534 135.001 106.724 140.185 108.186C144.106 109.316 144.97 109.98 144.97 111.974C144.97 113.968 147.762 119.219 150.088 121.478C155.006 126.397 163.048 128.258 170.292 126.131C175.077 124.802 179.663 120.814 181.258 116.627C182.854 112.44 182.854 105.793 181.258 101.008L179.929 97.2198L186.708 90.2413C192.092 84.7249 193.487 82.864 193.487 81.4018C193.487 78.0787 192.291 77.2812 185.379 76.0184C181.857 75.2873 178.467 74.3569 177.869 73.8916C177.138 73.2935 176.872 71.7648 176.872 68.3088C176.872 64.1217 176.673 63.3242 175.343 62.0614C172.618 59.4694 171.223 60.134 163.845 67.3119ZM171.023 73.9581C171.489 78.4775 172.818 79.6738 178.799 80.8037C181.458 81.3354 183.983 82.0665 184.382 82.4652C184.847 82.9305 183.252 84.9908 178.999 89.3773C175.609 92.7668 172.884 96.0235 172.884 96.6216C172.884 97.2198 173.615 99.2801 174.546 101.274C177.204 107.056 176.739 114.035 173.349 117.624C169.96 121.279 162.915 122.143 157.731 119.684C153.743 117.69 151.55 114.234 151.018 108.784C150.752 106.458 150.354 104.265 150.088 104.065C149.822 103.8 147.629 103.334 145.236 103.002C139.853 102.404 136.862 100.609 134.602 96.7546C132.475 93.0991 132.143 86.7853 133.871 83.4622C137.194 77.0153 145.17 75.3538 153.012 79.4744C154.873 80.4049 156.8 81.2024 157.266 81.2024C157.797 81.2024 160.855 78.6769 164.045 75.6196C167.235 72.5624 170.093 70.1698 170.292 70.3027C170.558 70.4356 170.89 72.0972 171.023 73.9581Z" fill="white"/>
<path d="M8.57866 0.195698C6.99491 0.525647 3.69542 2.50534 2.30964 4.0231C0.329943 6.13478 -0.725894 9.63223 0.659891 9.63223C1.05583 9.63223 1.31979 10.2261 1.31979 10.952C1.31979 11.6779 1.51776 12.2718 1.84771 12.2718C2.11167 12.2718 2.70557 13.2617 3.23349 14.3835C3.76141 15.5713 5.01522 17.815 6.07105 19.3327C7.0609 20.8505 7.91877 22.2363 7.91877 22.5002C7.91877 22.7642 8.84262 24.282 9.96445 25.9317C11.0863 27.5815 11.8122 29.0992 11.4822 29.3632C11.1523 29.5611 10.5584 30.353 10.1624 31.0789C8.44668 34.2464 7.58882 35.6982 7.25887 36.0281C6.59897 36.688 4.55329 40.3175 4.15735 41.4393C3.95938 42.0992 3.56344 42.6271 3.23349 42.6271C2.90354 42.6271 2.63958 43.0231 2.63958 43.419C2.63958 43.8809 2.04568 45.0028 1.31979 45.9266C-0.461935 48.2363 -0.329955 50.084 1.84771 51.3378C2.83755 51.9977 4.68527 53.4494 5.93907 54.6373C7.19288 55.8251 9.89846 58.1347 11.8782 59.7845C13.8578 61.3682 16.2335 63.4799 17.1573 64.4037C18.0812 65.3276 19.8629 66.8454 21.1167 67.7692C22.3705 68.7591 24.7462 70.7388 26.3959 72.2565C29.4974 75.0941 31.1472 75.49 31.5431 73.3784C31.8071 72.1905 30.2893 70.4088 27.1878 68.2971C26.3959 67.7032 24.6142 66.2515 23.2284 64.9977C21.9086 63.7439 18.8731 61.1043 16.4974 59.1246C14.1218 57.1449 12.0761 55.3631 11.8782 55.1652C11.5482 54.8352 4.4873 49.0941 4.09136 48.8302C3.8274 48.6322 5.27918 45.7286 5.87308 45.2667C6.07105 45.0687 6.66496 44.2769 7.12689 43.419C7.52283 42.6271 8.31471 41.3073 8.77663 40.4495C9.17257 39.6576 9.76648 38.8657 9.96445 38.6677C10.1624 38.4698 11.0203 36.754 11.9441 34.9063C13.7259 31.0789 14.1878 30.683 14.7817 32.8606C15.3756 35.2363 19.401 37.4139 23.2944 37.5459C26.5279 37.6779 26.7259 37.6119 26.7259 36.0281C26.7259 34.5104 26.5279 34.3784 23.9543 34.5764C21.5127 34.7743 20.9188 34.5104 18.6751 32.2667C17.2893 30.8809 15.5736 28.5053 14.7817 27.1195C13 23.6221 11.6142 21.2464 11.2183 20.8505C10.8883 20.5205 10.5584 19.9926 7.78679 14.9774C7.0609 13.6576 5.87308 11.8099 5.21319 10.82C3.56344 8.5764 3.62943 7.52056 5.47714 5.93681C7.85278 3.89113 9.76648 3.03326 11.8782 3.03326C13.9238 3.03326 19.7969 5.54087 19.7969 6.46473C19.7969 7.32259 21.8426 7.05863 22.8325 6.0028C24.1523 4.683 23.6903 4.08909 19.599 2.1094C16.0355 0.393667 11.4822 -0.39821 8.57866 0.195698Z" fill="white"/>
<path d="M27.8477 7.45458C27.9797 8.84036 28.4416 9.36828 29.6294 9.50026C30.4873 9.63224 32.9289 11.5459 35.0406 13.7236C37.3502 16.0992 39.1979 17.485 39.6599 17.2211C40.0558 16.9571 42.4974 16.6272 45.137 16.4952C49.8883 16.2312 56.0253 15.7693 62.6903 15.1754L66.3197 14.7794L70.4771 18.8048C74.7664 22.9622 75.1623 23.1601 81.1674 22.8962C85.1928 22.7642 86.5126 22.5662 89.5481 21.5764C91.7918 20.9165 92.3857 21.1804 92.3857 22.6982C92.3857 24.6119 95.8171 26.7896 98.8527 26.7896C100.37 26.7896 101.624 26.9875 101.624 27.3175C101.624 27.5815 102.548 28.1754 103.604 28.6373C106.178 29.7591 106.112 30.749 103.34 33.5205C101.294 35.5662 99.6446 36.2921 93.3755 38.0738C92.3197 38.4038 89.1522 39.2616 86.4466 40.0535C83.741 40.7794 80.8375 41.7033 79.9796 42.0332C79.1217 42.3632 77.9339 42.6271 77.274 42.6271C76.6141 42.6271 75.2943 43.419 74.3045 44.3429C72.9187 45.7946 72.5887 46.7185 72.5887 49.2921C72.5887 51.3378 72.9847 52.9875 73.7106 53.7794C74.3045 54.5053 80.5075 58.0027 87.5684 61.5002C99.2486 67.3733 100.304 68.0332 100.304 69.6169C100.304 71.5306 97.7308 73.5103 93.5075 74.8961C90.9999 75.754 90.142 75.688 83.4771 74.3682C78.7918 73.5103 70.2791 74.0383 65.8578 75.49C59.1928 77.7337 51.406 83.2768 49.9543 86.9063C49.6243 87.6322 49.2944 87.5662 48.3705 86.5103C47.7106 85.7844 45.203 83.5408 42.8934 81.5611C40.5177 79.5814 38.2081 77.5357 37.6802 77.0738C37.2182 76.6119 36.3604 76.3479 35.8324 76.5459C35.3045 76.7438 34.7106 76.9418 34.5786 76.9418C34.4467 76.9418 34.3147 77.4697 34.3147 78.0636C34.3147 78.7235 35.6345 80.1753 37.1522 81.3631C38.67 82.485 41.1116 84.5306 42.5634 85.9164C44.0152 87.2362 46.2588 89.0839 47.5126 90.0738C49.8883 91.7895 50.8121 92.7794 50.8121 93.5052C50.8121 93.7692 49.6243 95.221 48.1725 96.8047C46.7208 98.3885 45.5329 99.8403 45.5329 100.038C45.5329 100.236 45.269 100.764 44.939 101.292C44.4771 102.018 43.8172 101.688 41.7715 99.6423C40.3857 98.1905 37.6142 95.6829 35.6345 94.0992C33.6548 92.4494 31.6751 90.8657 31.2792 90.4697C30.8832 90.1398 28.9695 88.49 27.0558 86.8403C25.1421 85.1905 23.2284 83.5408 22.8325 83.2108C22.4365 82.8149 20.4568 81.2311 18.4771 79.5814C16.4974 77.9976 14.3858 76.1499 13.8579 75.622C13.3299 75.0941 11.2183 73.2464 9.23857 71.6626C7.25887 70.0129 4.75126 67.9012 3.69543 66.9114C1.58375 64.9977 0 65.1296 0 67.1753C0 68.4951 0.527918 69.155 3.43147 71.3987C4.42131 72.1905 6.79695 74.1043 8.71065 75.754C10.6244 77.4037 14.7157 80.9012 17.8172 83.5408C20.9188 86.1804 24.9441 89.6118 26.7259 91.1296C28.5736 92.7134 31.0812 94.825 32.335 95.8809C33.5888 96.9367 35.4365 98.5205 36.4923 99.3783C38.406 101.028 38.67 102.48 37.6142 104.658C37.2842 105.383 36.6903 106.571 36.2944 107.297C35.9644 108.023 35.6345 109.343 35.6345 110.201C35.6345 111.125 35.3045 112.048 34.9746 112.246C34.6446 112.444 34.3147 113.698 34.3147 114.952C34.3147 116.206 34.0507 117.196 33.6548 117.196C33.2588 117.196 32.9949 119.043 32.9949 121.485C32.9949 125.18 33.1269 125.774 34.1827 125.774C35.7665 125.774 36.9543 123.135 36.9543 119.835C36.9543 118.449 37.2842 117.064 37.6142 116.866C38.0101 116.668 38.2741 115.48 38.2741 114.226C38.2741 112.972 38.604 111.784 38.934 111.586C39.2639 111.388 39.5939 110.333 39.5939 109.211C39.5939 108.155 39.9238 107.297 40.2538 107.297C40.6497 107.297 40.9137 106.373 40.9137 105.317C40.9137 103.338 42.2994 102.546 43.2233 103.998C44.1472 105.515 45.9949 104.394 49.9543 100.17C53.4517 96.4088 54.0456 95.353 54.1116 93.2413C54.1116 91.9215 53.8477 90.7997 53.4517 90.7997C52.1979 90.7997 52.7918 87.9621 54.3096 86.7083C60.3806 81.2971 63.6141 79.4494 69.6192 77.8657C73.5786 76.8098 81.0354 76.6779 83.543 77.6677C86.9085 78.9215 94.5633 78.5256 97.9288 76.8758C103.472 74.3022 105.98 68.8251 102.944 66.0535C101.228 64.4697 101.294 63.2159 103.208 61.6982C104.132 60.9723 105.32 59.4545 105.848 58.3327C107.035 56.0231 107.233 51.8657 106.244 51.8657C105.914 51.8657 105.584 51.4698 105.584 50.9418C105.584 48.8302 101.558 48.3682 98.7207 50.216C97.7968 50.8099 96.807 51.1398 96.543 51.0078C96.2131 50.8099 95.4212 51.0738 94.6953 51.6017C93.6395 52.3936 93.5735 52.7896 94.1674 53.7134C95.0913 55.2312 98.7867 54.9012 100.634 53.1855C102.614 51.3378 102.944 51.5357 102.944 54.3733C102.944 56.353 102.416 57.5408 100.568 59.6525C99.3146 61.1703 97.9288 62.4241 97.5329 62.4241C97.1369 62.4241 93.6395 60.9063 89.8121 58.9926C85.9847 57.1449 82.4212 55.4291 81.8933 55.1652C78.9238 53.8454 81.3654 52.2616 85.1268 53.0535C88.2283 53.7794 89.7461 53.3835 89.7461 51.8657C89.7461 50.5459 88.4263 49.82 85.4568 49.4901C82.9491 49.2261 78.4618 50.5459 78.0659 51.6677C77.538 52.9875 76.6141 52.6576 75.8222 50.9418C75.1623 49.622 75.2943 48.9621 76.4821 47.3124C77.406 45.9926 78.5278 45.2667 79.5177 45.2667C80.3755 45.2667 81.7613 45.0028 82.6192 44.6728C83.4771 44.3429 85.4568 43.749 87.1065 43.287C88.7562 42.8251 90.8019 42.2312 91.7258 41.9672C92.6496 41.7033 94.6953 41.1094 96.3451 40.6474C103.34 38.7337 105.65 37.15 108.157 32.5307C109.279 30.617 109.543 28.9013 109.543 24.6119C109.543 19.5967 109.411 18.9368 107.695 16.9571C105.188 13.9876 101.558 13.7896 96.2791 16.4292C94.1674 17.419 90.9339 18.4089 89.0202 18.6068C87.0405 18.7388 84.005 19.2008 82.2892 19.5307C77.274 20.5865 76.8121 20.3886 72.6547 16.2972C70.0811 13.7236 68.0355 12.2718 66.8476 12.1398C64.736 11.9419 52.1979 12.5358 44.939 13.2617C40.0558 13.7236 40.0558 13.7236 38.3401 11.7439C36.1624 9.30229 30.5533 5.67285 28.8375 5.67285C27.9137 5.67285 27.6497 6.06879 27.8477 7.45458ZM104.33 18.4089C105.452 19.2667 106.376 24.8099 105.65 26.0637C105.386 26.4596 104.396 25.9977 103.208 24.8099C101.558 23.2921 100.766 23.0282 98.7867 23.2921C96.873 23.5561 96.2791 23.3581 95.6852 22.1043C94.7613 20.4546 95.4212 19.7947 98.5227 19.0688C99.5126 18.8708 100.304 18.4749 100.304 18.1449C100.304 17.2871 103.076 17.485 104.33 18.4089Z" fill="white"/>
<path d="M11.4162 9.43428C10.4264 9.83022 10.2284 12.9317 11.2183 12.9317C11.6142 12.9317 11.8782 13.3937 11.8782 13.9216C11.8782 14.4495 12.0761 14.9114 12.4061 14.9114C12.6701 14.9114 13.3959 16.0333 13.9899 17.3531C15.2437 20.1246 17.2893 23.6221 17.8832 24.15C18.0812 24.348 18.6091 25.1398 19.0711 25.9317C20.4568 28.5713 24.4162 29.8251 30.5533 29.4952C31.8071 29.4292 32.137 27.1195 30.8832 26.3937C30.4873 26.1297 28.7056 25.9977 26.9898 26.0637C24.4822 26.1297 23.5584 25.8657 22.5025 24.7439C21.7107 23.886 21.1167 22.8302 21.1167 22.3683C21.1167 21.9063 20.9188 21.5104 20.6548 21.5104C20.3249 21.5104 19.797 20.8505 19.467 19.9926C18.4772 17.947 15.5736 12.6678 15.1777 12.2718C14.9797 12.0739 14.5178 11.348 14.1218 10.6881C13.33 9.23631 12.6041 8.90637 11.4162 9.43428Z" fill="white"/>
<path d="M62.0304 21.8404C62.0304 24.018 64.802 27.1195 66.2537 26.5916C67.7715 25.9977 67.5735 24.084 65.7258 21.9723C63.7461 19.6627 62.0304 19.5967 62.0304 21.8404Z" fill="white"/>
<path d="M114.03 37.8759C109.543 40.2515 108.817 41.1754 110.401 42.5611C111.127 43.0891 112.513 42.6931 116.34 40.7794C121.355 38.3378 122.741 36.6881 120.365 35.7642C118.98 35.2363 119.112 35.1703 114.03 37.8759Z" fill="white"/>
<path d="M109.939 48.9621C109.081 51.2718 110.731 51.8657 118.122 51.8657C123.599 51.8657 125.381 51.6677 126.04 50.8759C126.7 50.084 126.7 49.688 126.04 48.8962C124.787 47.3784 110.533 47.4444 109.939 48.9621Z" fill="white"/>
<path d="M110.335 57.2769C109.015 58.5967 109.477 59.5865 112.051 60.7743C113.37 61.3682 115.614 62.4241 116.934 63.15C118.32 63.8099 119.837 64.2058 120.431 64.0078C122.015 63.3479 121.553 61.3682 119.639 60.4444C118.584 59.9825 116.406 58.9266 114.69 58.0687C110.995 56.221 111.325 56.287 110.335 57.2769Z" fill="white"/>
</svg>
